<svg xmlns="http://www.w3.org/2000/svg" viewBox="0 0 512 512">
  <defs>
    <linearGradient id="bg" x1="0" y1="0" x2="1" y2="1">
      <stop offset="0" stop-color="#ff8d9e"/>
      <stop offset="1" stop-color="#f6b73c"/>
    </linearGradient>
    <linearGradient id="folder" x1="0" y1="0" x2="0" y2="1">
      <stop offset="0" stop-color="#72ddfa"/>
      <stop offset="1" stop-color="#119bd0"/>
    </linearGradient>
  </defs>
  <rect x="18" y="18" width="476" height="476" rx="112" fill="url(#bg)" stroke="#17171c" stroke-width="18"/>
  <path d="M104 169c0-22 18-40 40-40h82l38 38h104c22 0 40 18 40 40v142c0 22-18 40-40 40H144c-22 0-40-18-40-40z" fill="#17171c" opacity=".22" transform="translate(8 12)"/>
  <path d="M92 158c0-22 18-40 40-40h82l38 38h104c22 0 40 18 40 40v142c0 22-18 40-40 40H132c-22 0-40-18-40-40z" fill="url(#folder)" stroke="#17171c" stroke-width="15"/>
  <rect x="142" y="221" width="218" height="132" rx="28" fill="#fffdf7" stroke="#17171c" stroke-width="13" transform="rotate(-6 251 287)"/>
  <circle cx="208" cy="278" r="23" fill="#ff8d9e" stroke="#17171c" stroke-width="10"/>
  <path d="m243 325 44-52 56 68H197z" fill="#b8e6d2" stroke="#17171c" stroke-width="10" stroke-linejoin="round"/>
  <path d="M104 197h286" stroke="#bdf0ff" stroke-width="8" opacity=".7"/>
</svg>
